<?xml version="1.0" encoding="utf-8"?>
<!-- Generator: Adobe Illustrator 26.0.0, SVG Export Plug-In . SVG Version: 6.00 Build 0)  -->
<svg version="1.1" id="Layer_1" xmlns="http://www.w3.org/2000/svg" xmlns:xlink="http://www.w3.org/1999/xlink" x="0px" y="0px"
	 viewBox="0 0 520 320" style="enable-background:new 0 0 520 320;" xml:space="preserve">
<style type="text/css">
	.st0{clip-path:url(#SVGID_00000014629655736107142120000011156886628208453531_);}
	.st1{fill:#C2FFFA;}
</style>
<g>
	<defs>
		<rect id="SVGID_1_" x="106" y="100" width="308.6" height="120"/>
	</defs>
	<clipPath id="SVGID_00000167355785758103921410000002942347675915446188_">
		<use xlink:href="#SVGID_1_"  style="overflow:visible;"/>
	</clipPath>
	<g style="clip-path:url(#SVGID_00000167355785758103921410000002942347675915446188_);">
		<path class="st1" d="M412.6,187.8h-14.2l14.8-45.8c0.4-1.4-0.3-2.3-1.7-2.3h-30.7c-1.3,0-2,0.7-2,2v7.8c0,1.3,0.7,2,2,2h12.6
			l-14.9,45.8c-0.4,1.4,0.3,2.3,1.8,2.3h32.4c1.3,0,2-0.7,2-2v-7.8C414.6,188.5,413.9,187.8,412.6,187.8z"/>
		<path class="st1" d="M374.2,190.2v-48.5c0-1.3-0.7-2-2-2h-11.8c-1.4,0-2.1,0.7-2.1,2v4.2h-1.2c-1-4.4-4.2-6.9-9.9-6.9
			c-8.7,0-13.6,5.7-13.6,24.5v12.5c0,18.8,4.8,24.3,13.6,24.3c6.3,0,9.7-2.9,10.7-8.4h1.3l1.4,5.9c0.3,1.2,1,1.8,2.2,1.8h11
			c1.5,0,2-0.9,1.8-2.2L374.2,190.2z M358.3,179.1c0,7.8-1.3,9.4-4.3,9.4c-2.9,0-4.2-1.7-4.2-9.3v-19.7c0-7.8,1.4-9.4,4.2-9.4
			c3,0,4.3,1.7,4.3,9.6V179.1z"/>
		<path class="st1" d="M328.4,139.8L317,148h-0.7v-6.3c0-1.3-0.7-2-2-2h-11.2c-1.3,0-2,0.7-2,2v55.8c0,1.3,0.7,2,2,2H315
			c1.4,0,2-0.7,2-2v-33.5l12.6-9c0.9-0.7,1.3-1.4,1.3-2.4v-11.5C330.8,139.5,329.7,138.9,328.4,139.8z"/>
		<path class="st1" d="M295.2,190.2v-48.5c0-1.3-0.7-2-2-2h-11.8c-1.4,0-2.1,0.7-2.1,2v4.2h-1.2c-1-4.4-4.2-6.9-9.9-6.9
			c-8.7,0-13.6,5.7-13.6,24.5v12.5c0,18.8,4.8,24.3,13.6,24.3c6.3,0,9.7-2.9,10.7-8.4h1.3l1.4,5.9c0.3,1.2,1,1.8,2.2,1.8h11
			c1.5,0,2-0.9,1.8-2.2L295.2,190.2z M279.3,179.1c0,7.8-1.3,9.4-4.3,9.4c-2.9,0-4.2-1.7-4.2-9.3v-19.7c0-7.8,1.4-9.4,4.2-9.4
			c3,0,4.3,1.7,4.3,9.6V179.1z"/>
		<path class="st1" d="M224.7,119.8h-17.2c-1.4,0-2,0.7-2,2v75.8c0,1.3,0.6,2,2,2h17.2c17.1,0,24.9-7.8,24.9-34.6v-10.5
			C249.7,126.8,241.3,119.8,224.7,119.8z M232.9,172.3c0,11.8-2.2,14.1-7.8,14.1H222v-53.6h3.1c5.6,0,7.8,2,7.8,14.1L232.9,172.3z"
			/>
		<path class="st1" d="M174.1,117.8l-30-17.3c-1.8-1.1-3.2-0.4-3.2,1.8v36.9l29.8,17.2c1.8,1.1,1.8,2.6,0,3.7l-26.7,15.4
			c-1.8,1.1-3.2,0.4-3.2-1.8v-34.5l-33.1,19.2c-1.3,0.8-1.8,1.7-1.8,3.2v36.7c0,1.5,0.5,2.4,1.8,3.2l31.3,18.1
			c1.3,0.8,2.4,0.8,3.7,0l31.3-18.1c1.3-0.8,1.8-1.7,1.8-3.2v-77.2C176,119.5,175.4,118.6,174.1,117.8z"/>
	</g>
</g>
</svg>
